<?xml version="1.0" encoding="UTF-8" standalone="no"?>
<!-- Created with Inkscape (http://www.inkscape.org/) -->

<svg
   width="500"
   height="197.87054"
   viewBox="0 0 132.29166 52.35325"
   version="1.1"
   id="svg1"
   xmlns="http://www.w3.org/2000/svg"
   xmlns:svg="http://www.w3.org/2000/svg">
  <defs
     id="defs1" />
  <g
     id="layer1"
     transform="translate(2.3555405e-6,-39.969211)">
    <path
       id="path1128-1-1-2-7-0-0-9-72-1-2-6-7-5-3-1-4-1-6-2-0-9-5-8-7-8"
       style="fill:#fafafa;fill-opacity:1;stroke:#fafafa;stroke-width:3.7424;stroke-dasharray:none;stroke-opacity:1"
       d="m 63.911471,42.31248 -3.481015,0.03755 1.00111,0.94306 c 2.044861,1.927811 -0.269551,2.615168 -9.052655,2.686823 -17.995574,0.14677 -29.973832,2.25324 -39.391316,6.92824 -5.2249735,2.593129 -8.3574465,5.50964 -10.12459,9.424383 v 0 c -0.7096173,1.572881 -1.0380951,3.097195 -0.9867011,4.607515 v 0 c 0.068997,1.509369 0.4889499,3.005646 1.3026473,4.5215 3.2622257,6.053616 10.5671438,10.126662 23.5327368,13.118143 6.404744,1.477089 12.41016,2.022724 24.204737,2.196556 9.806791,0.146039 9.836243,0.146039 11.444158,1.065255 1.135909,0.647935 1.525192,1.168043 1.312667,1.760561 -0.300879,0.826205 -0.238197,0.840516 3.480406,0.830032 l 3.778775,-0.03755 -0.976657,-0.729854 c -1.178526,-0.879768 -1.303281,-2.097327 -0.269574,-2.637818 0.501506,-0.26265 3.322421,-0.415613 8.475935,-0.457621 25.608955,-0.211134 41.503275,-4.076093 48.448385,-11.78775 3.09673,-3.436254 3.98689,-5.559961 3.7888,-9.041611 -0.18188,-3.274587 -1.79723,-6.156063 -5.17795,-9.261693 -2.74382,-2.520036 -4.64135,-3.61423 -9.90833,-5.71758 C 106.48544,47.235159 97.389531,45.9497 80.078487,45.782085 L 67.923445,45.667985 67.691587,44.8007 c -0.125316,-0.477053 0.238197,-1.339755 0.803652,-1.916791 2.04296,-1.804446 -3.825804,-0.584229 -4.586181,-0.571697 z m 5.124673,8.719715 7.814567,-0.06583 c 19.49007,-0.157254 33.573369,1.644218 41.454999,5.301943 10.68817,4.958422 11.67799,13.40966 2.16523,18.459046 -8.27972,4.393795 -19.16159,6.148212 -42.342035,6.827183 -7.125649,0.211135 -7.572592,0.182366 -8.855174,-0.486463 -0.968513,-0.50587 -1.300136,-1.033073 -1.175381,-1.862861 0.156766,-1.054089 0.069,-1.143346 -1.288214,-1.002622 -0.890179,0.0946 -1.784722,0.554143 -2.27806,1.174309 -1.646168,2.061415 -2.63538,2.260823 -11.393397,2.297564 C 39.946809,81.730784 28.326503,80.697418 20.55331,78.780944 15.614807,77.563119 10.093953,74.821806 7.9864096,72.54182 6.5320672,70.968745 6.0769574,69.954153 5.842515,67.768884 5.7735183,67.405299 5.7735183,67.063851 5.7610843,66.738128 v 0 c -0.094108,-2.278987 0.457621,-3.714459 1.9295173,-5.253377 6.3658804,-6.64884 19.9507864,-9.89534 42.3445194,-10.118324 l 10.116447,-0.09972 1.903796,1.042995 c 1.046262,0.572965 1.912597,1.389076 1.92764,1.813418 0.069,0.618093 0.338498,0.758451 1.619837,0.710178 1.300745,-0.05022 1.590994,-0.228932 1.568418,-0.966709 -0.07533,-0.498995 0.388673,-1.340242 0.916485,-1.869883 z" />
  </g>
</svg>
