<?xml version="1.0" encoding="UTF-8" standalone="no"?>
<!-- Created with Inkscape (http://www.inkscape.org/) -->

<svg
   width="8.4841719mm"
   height="8.4846249mm"
   viewBox="0 0 8.4841719 8.4846249"
   version="1.1"
   id="svg1"
   xml:space="preserve"
   xmlns="http://www.w3.org/2000/svg"
   xmlns:svg="http://www.w3.org/2000/svg"><defs
     id="defs1" /><g
     id="layer1"
     transform="translate(-700.26643,198.81345)"><g
       id="g353"
       transform="matrix(0.0702175,0,0,0.07023694,664.42518,-189.25797)"><path
         style="fill:#fafafa;fill-opacity:1"
         d="m 565.36448,-16.108779 c -9.03852,-0.92378 -17.57169,-3.75079 -24.77954,-8.20938 -9.81545,-6.07159 -18.11943,-15.229749 -22.995,-25.360359 -3.93186,-8.169741 -5.53899,-15.577901 -5.53899,-25.532291 0,-10.157194 1.63532,-17.583433 5.68069,-25.796881 3.30713,-6.71455 6.1854,-10.68886 11.78442,-16.27187 9.38251,-9.35569 20.1525,-14.81827 32.93801,-16.70628 3.18596,-0.47047 14.54562,-0.47003 17.72708,6.8e-4 10.15941,1.50312 18.80007,5.19549 27.22588,11.63431 3.06988,2.34595 8.00404,7.1721 10.45961,10.23066 5.69488,7.09332 9.8083,15.763653 11.50594,24.252412 1.05051,5.252909 1.28771,8.230009 1.14282,14.343849 -0.14536,6.13401 -0.64363,9.72331 -2.05674,14.81576 -4.93417,17.781331 -19.96442,33.6343 -37.61632,39.67532 -6.09399,2.08555 -10.89679,2.85375 -18.4664,2.95366 -3.27422,0.0432 -6.42937,0.0299 -7.01146,-0.0296 z m 13.85667,-2.88529 c 12.7689,-1.83484 22.96142,-6.94414 32.1824,-16.132369 9.07223,-9.04 14.37314,-19.545291 16.16105,-32.027811 0.60584,-4.2297 0.6079,-11.85391 0.004,-16.12635 -1.39067,-9.844574 -4.94353,-18.347301 -10.88981,-26.061541 -9.62258,-12.48359 -23.16586,-20.42602 -37.68863,-22.10244 -6.7926,-0.7841 -15.71481,-0.34865 -21.29896,1.03949 -12.61567,3.13607 -22.88587,9.92453 -31.66591,20.93074 -5.84528,7.32734 -9.79546,16.849363 -11.0859,26.722911 -0.47161,3.60844 -0.40321,12.11369 0.12729,15.82665 1.53777,10.76287 5.77102,20.039861 12.9602,28.401681 9.23545,10.741869 20.89095,17.316429 34.37107,19.387809 4.21857,0.64823 12.79356,0.72022 16.82283,0.14123 z m -36.42562,-29.282159 c -0.24287,-0.24286 -0.3175,-6.768531 -0.3175,-27.759611 0,-15.093161 0.0723,-27.630441 0.1606,-27.860621 0.14473,-0.37718 2.37254,-0.41754 22.55572,-0.40858 l 22.39513,0.01 6.01927,5.932322 6.01927,5.932325 v 21.820087 c 0,19.483671 -0.0445,21.864611 -0.41577,22.235861 -0.37271,0.37271 -3.29962,0.41578 -28.2575,0.41578 -21.30189,0 -27.9163,-0.0746 -28.15922,-0.3175 z"
         id="path340" /><path
         style="fill:#b01c1c;fill-opacity:1"
         d="m 564.95011,-16.258715 c -3.01252,-0.31246 -7.53627,-1.17219 -10.45104,-1.98618 -18.98158,-5.30092 -35.69484,-22.339021 -40.5778,-41.366494 -2.23379,-8.70442 -2.4867,-19.24898 -0.67799,-28.267379 1.74411,-8.696326 6.07343,-17.685112 11.84852,-24.600612 2.62469,-3.14298 8.4843,-8.71524 11.4156,-10.85577 10.86913,-7.93698 23.54934,-11.67674 37.43854,-11.04167 12.77001,0.58389 22.61065,4.05899 32.74237,11.56255 3.13047,2.31843 8.42466,7.44376 11.03506,10.68309 8.48412,10.52825 12.80599,22.893096 12.83515,36.721371 0.01,4.65893 -0.30025,7.85438 -1.21056,12.47516 -3.3168,16.836193 -14.92839,32.059724 -30.90154,40.513844 -9.60467,5.08346 -21.96787,7.35784 -33.49631,6.16209 z m 11.24479,-2.35401 c 13.70606,-1.29926 24.61703,-6.24631 34.32248,-15.561831 12.06082,-11.57626 18.29448,-26.909693 17.57412,-43.228443 -0.63906,-14.477004 -5.59933,-26.290751 -15.39045,-36.655051 -7.82589,-8.284 -16.95872,-13.70198 -27.53541,-16.33516 -4.46955,-1.11274 -7.69037,-1.44942 -13.86553,-1.44942 -6.17516,0 -9.39598,0.33668 -13.86553,1.44942 -8.61801,2.14554 -15.83708,5.85589 -22.51468,11.57174 -11.22906,9.6118 -17.87522,21.259961 -19.89507,34.868421 -0.63164,4.25563 -0.62805,13.32609 0.007,17.4153 1.82665,11.76399 6.70468,21.608923 15.02479,30.323293 9.98865,10.461981 21.78937,16.235921 35.95192,17.590811 3.32413,0.31801 6.90645,0.32185 10.18646,0.0109 z m -33.55679,-29.796776 c -0.0977,-0.0977 -0.17758,-12.592738 -0.17758,-27.766828 0,-21.67863 0.0703,-27.632711 0.32833,-27.792161 0.18058,-0.11161 10.38737,-0.17999 22.68175,-0.15197 l 22.35342,0.051 5.76245,5.757989 5.76246,5.757988 -0.0676,22.093464 -0.0676,22.093458 -28.19898,0.0673 c -15.50944,0.037 -28.27889,-0.0126 -28.37656,-0.11024 z m 42.15575,-12.524798 v -10.84792 h -13.75833 -13.75834 v 10.84792 10.847908 h 13.75834 13.75833 z m -25.56782,6.749689 c -0.0844,-0.21983 -0.0844,-0.579559 0,-0.799389 0.13411,-0.34949 1.59129,-0.39103 11.60383,-0.330721 l 11.45045,0.069 v 0.66146 0.661449 l -11.45045,0.069 c -10.01254,0.0603 -11.46972,0.0188 -11.60383,-0.330729 z m 0.17837,-5.281779 c -0.17536,-0.211291 -0.27762,-0.598241 -0.22726,-0.859891 0.0862,-0.44788 0.76029,-0.47977 11.51251,-0.54468 11.32665,-0.0684 11.42236,-0.0644 11.5938,0.47572 0.4139,1.30408 0.33551,1.31302 -11.51252,1.31302 -9.33495,0 -11.09713,-0.0596 -11.36653,-0.384169 z m -0.17837,-5.566141 c -0.0844,-0.21983 -0.0844,-0.579549 0,-0.79938 0.13411,-0.3495 1.59129,-0.39103 11.60383,-0.33073 l 11.45045,0.069 v 0.661461 0.66146 l -11.45045,0.069 c -10.01254,0.0603 -11.46972,0.0188 -11.60383,-0.33073 z m 25.03865,-30.165313 v -7.276047 h -13.75833 -13.75833 v 7.276047 7.276041 h 13.75833 13.75833 z m -9.93371,4.562483 c -0.0734,-0.191257 -0.10075,-2.427153 -0.0608,-4.968654 l 0.0726,-4.620916 h 3.57187 3.57188 v 4.894794 4.894791 l -3.51107,0.07386 c -2.70978,0.05701 -3.54153,-0.0055 -3.64452,-0.273879 z"
         id="path339" /><path
         style="fill:none;fill-opacity:1;stroke:#5f5f5f;stroke-width:4.753;stroke-dasharray:none;stroke-opacity:1"
         d="m 575.80957,-17.858983 c 14.00158,-1.328871 25.14781,-6.388677 35.06253,-15.916505 12.32087,-11.84009 18.68894,-27.522979 17.95305,-44.213644 -0.65284,-14.80695 -5.72006,-26.889928 -15.7223,-37.490438 -7.99463,-8.4728 -17.32438,-14.01426 -28.12912,-16.70745 -4.56592,-1.1381 -7.85619,-1.48245 -14.16449,-1.48245 -6.30831,0 -9.59858,0.34435 -14.1645,1.48245 -8.80383,2.19445 -16.17855,5.98935 -23.00014,11.83547 -11.47117,9.83086 -18.26064,21.744483 -20.32404,35.663088 -0.64526,4.352619 -0.64159,13.629801 0.007,17.812206 1.86604,12.032099 6.84925,22.101401 15.34875,31.014377 10.20403,10.700427 22.25919,16.605958 36.72711,17.991727 3.3958,0.325258 7.05537,0.329185 10.4061,0.01115 z"
         id="path346" /></g></g></svg>
